<?xml version="1.0" encoding="UTF-8" standalone="no" ?>
<!DOCTYPE svg PUBLIC "-//W3C//DTD SVG 1.1//EN" "http://www.w3.org/Graphics/SVG/1.1/DTD/svg11.dtd">
<svg xmlns="http://www.w3.org/2000/svg" xmlns:xlink="http://www.w3.org/1999/xlink" version="1.1" width="1080" height="1080" viewBox="0 0 1080 1080" xml:space="preserve">
<desc>Created with Fabric.js 5.2.4</desc>
<defs>
</defs>
<g transform="matrix(1 0 0 1 540 540)" id="31601460-de5d-4bb2-a15b-b8ecef468672"  >
<rect style="stroke: none; stroke-width: 1; stroke-dasharray: none; stroke-linecap: butt; stroke-dashoffset: 0; stroke-linejoin: miter; stroke-miterlimit: 4; fill: rgb(255,255,255); fill-rule: nonzero; opacity: 1; visibility: hidden;" vector-effect="non-scaling-stroke"  x="-540" y="-540" rx="0" ry="0" width="1080" height="1080" />
</g>
<g transform="matrix(1 0 0 1 540 540)" id="b626772d-17f3-4d8e-b4f6-e7c66776d8bc"  >
</g>
<g transform="matrix(1 0 0 1 357.78 264.89)"  >
<path style="stroke: none; stroke-width: 1; stroke-dasharray: none; stroke-linecap: butt; stroke-dashoffset: 0; stroke-linejoin: miter; stroke-miterlimit: 4; fill: rgb(254,175,53); fill-rule: nonzero; opacity: 1;" vector-effect="non-scaling-stroke"  transform=" translate(-506.63, -262.6)" d="M 277.235 165.098 L 382.7 105.592 L 411.565 120.757 L 459.567 146.057 L 586.683 214.6 L 639.779 243.546 C 649.933 249.037 661.211 253.67 670.375 260.752 C 685.307 271.155 699.412 283.167 710.746 297.477 C 718.417 307.162 724.599 317.727 730.141 328.741 C 733.596 335.608 737.737 343.543 738.976 351.213 L 739.034 351.818 C 735.745 352.7 732.921 354.886 730.025 356.639 L 716.134 364.783 L 660.955 396.756 C 648.265 404.121 634.77 411.269 622.72 419.613 L 617.533 402.026 C 609.367 377.95 593.933 355.418 574.319 339.201 C 561.25 328.396 544.257 320.788 529.294 312.909 L 466.171 279.815 L 337.701 212.14 L 291.12 187.61 L 274.52 178.893 C 274.499 175.556 273.774 170.181 274.719 167.084 C 275.141 165.701 276.039 165.631 277.235 165.098 Z" stroke-linecap="round" />
</g>
<g transform="matrix(1 0 0 1 357.78 294.65)"  >
<path style="stroke: none; stroke-width: 1; stroke-dasharray: none; stroke-linecap: butt; stroke-dashoffset: 0; stroke-linejoin: miter; stroke-miterlimit: 4; fill: rgb(228,65,43); fill-rule: nonzero; opacity: 1;" vector-effect="non-scaling-stroke"  transform=" translate(-506.63, -292.36)" d="M 274.52 178.893 C 274.499 175.556 273.774 170.181 274.719 167.084 C 275.141 165.701 276.039 165.631 277.235 165.098 C 288.542 169.201 298.5 174.742 309.076 180.317 L 346.5 199.964 L 495.647 278.164 L 543.145 303.486 C 551.518 307.967 559.907 312.928 568.506 316.918 L 670.375 260.752 C 685.307 271.155 699.412 283.167 710.746 297.477 C 718.417 307.162 724.599 317.727 730.141 328.741 C 733.596 335.608 737.737 343.543 738.976 351.213 L 739.034 351.818 C 735.745 352.7 732.921 354.886 730.025 356.639 L 716.134 364.783 L 660.955 396.756 C 648.265 404.121 634.77 411.269 622.72 419.613 L 617.533 402.026 C 609.367 377.95 593.933 355.418 574.319 339.201 C 561.25 328.396 544.257 320.788 529.294 312.909 L 466.171 279.815 L 337.701 212.14 L 291.12 187.61 L 274.52 178.893 Z" stroke-linecap="round" />
</g>
<g transform="matrix(1 0 0 1 522.28 452.08)"  >
<path style="stroke: none; stroke-width: 1; stroke-dasharray: none; stroke-linecap: butt; stroke-dashoffset: 0; stroke-linejoin: miter; stroke-miterlimit: 4; fill: rgb(170,31,18); fill-rule: nonzero; opacity: 1;" vector-effect="non-scaling-stroke"  transform=" translate(-671.13, -449.79)" d="M 622.72 419.613 C 634.77 411.269 648.265 404.121 660.955 396.756 L 716.134 364.783 L 730.025 356.639 C 732.921 354.886 735.745 352.7 739.034 351.818 L 739.437 352.21 L 740.249 419.81 L 740.496 448.094 C 740.499 452.47 740.843 457.171 740.413 461.516 C 740.254 463.128 739.73 464.261 738.604 465.401 C 736.191 467.846 732.869 469.607 729.941 471.352 L 717.34 478.825 L 687.5 497.043 L 669.258 508.293 C 662.8 511.63 656.812 515.555 650.572 519.259 L 617.197 539.276 L 606.563 545.61 C 604.896 546.564 603.565 547.496 601.632 547.755 C 611.534 540.329 619.066 530.43 621.093 517.954 L 621.201 517.25 C 623.098 505.566 622.105 493.304 622.309 481.492 C 622.664 460.974 623.764 440.092 622.72 419.613 Z" stroke-linecap="round" />
</g>
<g transform="matrix(1 0 0 1 500.99 592.94)"  >
<path style="stroke: none; stroke-width: 1; stroke-dasharray: none; stroke-linecap: butt; stroke-dashoffset: 0; stroke-linejoin: miter; stroke-miterlimit: 4; fill: rgb(228,65,43); fill-rule: nonzero; opacity: 1;" vector-effect="non-scaling-stroke"  transform=" translate(-649.85, -590.65)" d="M 669.258 508.293 C 675.379 512.263 682.043 516.223 687.231 521.386 C 711.86 541.997 731.415 569.706 740.409 600.783 L 623.392 673.009 C 613.56 642.318 598.839 614.167 577.163 590.134 L 559.909 572.757 C 559.136 571.957 559.312 572.425 559.329 571.362 L 561.945 570.104 L 601.632 547.755 C 603.565 547.496 604.896 546.564 606.563 545.61 L 617.197 539.276 L 650.572 519.259 C 656.812 515.555 662.8 511.63 669.258 508.293 Z" stroke-linecap="round" />
</g>
<g transform="matrix(1 0 0 1 475.73 542.77)"  >
<path style="stroke: none; stroke-width: 1; stroke-dasharray: none; stroke-linecap: butt; stroke-dashoffset: 0; stroke-linejoin: miter; stroke-miterlimit: 4; fill: rgb(100,20,14); fill-rule: nonzero; opacity: 1;" vector-effect="non-scaling-stroke"  transform=" translate(-624.59, -540.49)" d="M 669.258 508.293 C 675.379 512.263 682.043 516.223 687.231 521.386 L 665.456 534.58 L 625.5 558.468 L 609.16 568.375 C 607.306 569.538 603.895 572.325 601.875 572.644 C 600.832 572.809 598.695 572.32 597.579 572.172 L 588.708 571.289 L 572.904 570.515 C 569.293 570.432 565.52 570.624 561.945 570.104 L 601.632 547.755 C 603.565 547.496 604.896 546.564 606.563 545.61 L 617.197 539.276 L 650.572 519.259 C 656.812 515.555 662.8 511.63 669.258 508.293 Z" stroke-linecap="round" />
</g>
<g transform="matrix(1 0 0 1 523.29 712.35)"  >
<path style="stroke: none; stroke-width: 1; stroke-dasharray: none; stroke-linecap: butt; stroke-dashoffset: 0; stroke-linejoin: miter; stroke-miterlimit: 4; fill: rgb(170,31,18); fill-rule: nonzero; opacity: 1;" vector-effect="non-scaling-stroke"  transform=" translate(-672.14, -710.06)" d="M 740.409 600.783 C 741.706 609.405 741.058 618.428 740.983 627.137 L 740.838 664.094 L 740.944 701.372 C 740.971 708.479 741.389 715.877 740.614 722.943 C 740.202 726.693 739.067 730.555 736.834 733.639 C 735.356 735.681 733.234 737.245 731.167 738.653 L 708.496 752.834 L 659.4 783.497 L 622.847 807.329 C 618.49 810.216 614.366 813.61 609.892 816.296 C 607.848 817.523 605.45 818.979 603.072 819.346 C 605.64 816.473 608.541 813.392 610.321 809.966 L 611.884 807.719 C 616.571 800.771 619.962 793.663 621.623 785.398 C 624.17 772.726 623.852 759.628 623.892 746.766 L 623.958 706.993 L 623.999 686.505 C 624.006 682.015 624.257 677.432 623.392 673.009 L 740.409 600.783 Z" stroke-linecap="round" />
</g>
<g transform="matrix(1 0 0 1 308.61 512.01)"  >
<path style="stroke: none; stroke-width: 1; stroke-dasharray: none; stroke-linecap: butt; stroke-dashoffset: 0; stroke-linejoin: miter; stroke-miterlimit: 4; fill: rgb(96,201,208); fill-rule: nonzero; opacity: 1;" vector-effect="non-scaling-stroke"  transform=" translate(-457.46, -509.72)" d="M 291.12 187.61 L 337.701 212.14 L 466.171 279.815 L 529.294 312.909 C 544.257 320.788 561.25 328.396 574.319 339.201 C 593.933 355.418 609.367 377.95 617.533 402.026 L 622.72 419.613 C 623.764 440.092 622.664 460.974 622.309 481.492 C 622.105 493.304 623.098 505.566 621.201 517.25 L 621.093 517.954 C 619.066 530.43 611.534 540.329 601.632 547.755 L 561.945 570.104 L 559.329 571.362 C 559.312 572.425 559.136 571.957 559.909 572.757 L 577.163 590.134 C 598.839 614.167 613.56 642.318 623.392 673.009 C 624.257 677.432 624.006 682.015 623.999 686.505 L 623.958 706.993 L 623.892 746.766 C 623.852 759.628 624.17 772.726 621.623 785.398 C 619.962 793.663 616.571 800.771 611.884 807.719 L 610.321 809.966 C 608.541 813.392 605.64 816.473 603.072 819.346 C 595.042 825.31 586.062 830.336 576 831.53 C 572.569 831.938 570.131 831.988 566.75 831.217 L 566.023 831.059 C 564.529 830.725 563.698 830.404 562.559 829.395 L 562.462 829.262 C 553.714 827.812 545.229 823.774 537.325 819.892 L 493.096 795.495 L 406.164 747.25 L 332.594 706.564 C 318.93 699.075 304.508 692.072 291.343 683.787 C 290.589 681.595 290.995 678.354 290.998 675.976 L 291.009 660.185 L 291.044 597.914 L 291.23 324.19 L 291.318 235.189 C 291.332 219.441 292.073 203.299 291.12 187.61 Z" stroke-linecap="round" />
</g>
<g transform="matrix(1 0 0 1 437.58 823.18)"  >
<path style="stroke: none; stroke-width: 1; stroke-dasharray: none; stroke-linecap: butt; stroke-dashoffset: 0; stroke-linejoin: miter; stroke-miterlimit: 4; fill: rgb(0,0,0); fill-rule: nonzero; opacity: 1;" vector-effect="non-scaling-stroke"  transform=" translate(-586.44, -820.89)" d="M 562.559 829.395 L 567.381 829.807 C 584.472 830.866 598.247 820.748 610.321 809.966 C 608.541 813.392 605.64 816.473 603.072 819.346 C 595.042 825.31 586.062 830.336 576 831.53 C 572.569 831.938 570.131 831.988 566.75 831.217 L 566.023 831.059 C 564.529 830.725 563.698 830.404 562.559 829.395 Z" stroke-linecap="round" />
</g>
<g transform="matrix(1 0 0 1 251.61 306.82)"  >
<path style="stroke: none; stroke-width: 1; stroke-dasharray: none; stroke-linecap: butt; stroke-dashoffset: 0; stroke-linejoin: miter; stroke-miterlimit: 4; fill: rgb(100,20,14); fill-rule: nonzero; opacity: 1;" vector-effect="non-scaling-stroke"  transform=" translate(-400.47, -304.54)" d="M 350.633 272.596 L 450.298 324.951 C 450.206 328.659 449.705 332.828 450.195 336.483 C 447.295 335.341 444.478 333.419 441.763 331.871 L 425.945 322.86 L 374.979 293.67 C 370.178 288.652 363.645 284.021 358.201 279.615 C 355.38 277.332 352.741 275.639 350.633 272.596 Z" stroke-linecap="round" />
</g>
<g transform="matrix(1 0 0 1 250.92 531.62)"  >
<path style="stroke: none; stroke-width: 1; stroke-dasharray: none; stroke-linecap: butt; stroke-dashoffset: 0; stroke-linejoin: miter; stroke-miterlimit: 4; fill: rgb(100,20,14); fill-rule: nonzero; opacity: 1;" vector-effect="non-scaling-stroke"  transform=" translate(-399.77, -529.33)" d="M 349.933 496.857 L 449.066 550.201 L 449.609 561.804 L 375.042 520.134 C 369.112 516.101 364.006 510.435 358.778 505.535 C 355.663 502.616 352.038 500.728 349.933 496.857 Z" stroke-linecap="round" />
</g>
<g transform="matrix(1 0 0 1 407.29 438.96)"  >
<path style="stroke: none; stroke-width: 1; stroke-dasharray: none; stroke-linecap: butt; stroke-dashoffset: 0; stroke-linejoin: miter; stroke-miterlimit: 4; fill: rgb(100,20,14); fill-rule: nonzero; opacity: 1;" vector-effect="non-scaling-stroke"  transform=" translate(-556.14, -436.68)" d="M 552.155 380.463 C 558.653 386.681 563.23 392.274 563.415 401.75 L 563.486 453.814 L 563.475 470.418 C 563.471 473.365 563.704 476.485 563.298 479.401 C 562.982 481.674 562.365 483.361 560.75 485.044 C 557.549 488.383 552.728 490.641 548.745 492.889 C 549.075 490.169 550.084 487.638 550.593 484.962 C 551.384 480.804 551.476 476.73 551.486 472.507 L 551.707 431.136 C 552.352 426.605 551.95 421.458 551.948 416.87 C 551.945 404.799 551.448 392.501 552.155 380.463 Z" stroke-linecap="round" />
</g>
<g transform="matrix(1 0 0 1 406.49 710.49)"  >
<path style="stroke: none; stroke-width: 1; stroke-dasharray: none; stroke-linecap: butt; stroke-dashoffset: 0; stroke-linejoin: miter; stroke-miterlimit: 4; fill: rgb(30,65,78); fill-rule: nonzero; opacity: 1;" vector-effect="non-scaling-stroke"  transform=" translate(-555.34, -708.2)" d="M 559.821 648.63 C 564.79 669.512 563.493 691.132 563.486 712.417 C 563.482 723.559 564.257 734.878 562.376 745.906 C 561.566 750.661 559.826 755.2 557.305 759.31 C 554.977 763.105 551.321 766.391 547.043 767.771 L 550.992 764.334 L 551.029 753.834 L 551.411 677.886 L 551.474 660.415 C 551.473 658.725 551.829 656.049 551.431 654.5 C 551.294 653.967 550.862 653.558 550.577 653.086 L 551.614 652.066 L 552.538 652.418 C 555.282 651.78 557.915 650.82 559.821 648.63 Z" stroke-linecap="round" />
</g>
<g transform="matrix(1 0 0 1 300.93 713.5)"  >
<path style="stroke: none; stroke-width: 1; stroke-dasharray: none; stroke-linecap: butt; stroke-dashoffset: 0; stroke-linejoin: miter; stroke-miterlimit: 4; fill: rgb(228,65,43); fill-rule: nonzero; opacity: 1;" vector-effect="non-scaling-stroke"  transform=" translate(-449.79, -711.2)" d="M 348.559 662.578 C 350.772 661.92 352.749 660.032 354.649 658.731 L 364.335 652.747 L 551.029 753.834 L 550.992 764.334 L 547.043 767.771 L 544.003 769.657 C 542.331 769.414 540.499 768.126 538.991 767.319 L 527.209 760.787 L 495.148 743.18 L 404.882 693.927 L 370.496 675.358 C 363.32 671.506 354.807 667.785 348.559 662.578 Z" stroke-linecap="round" />
</g>
<g transform="matrix(1 0 0 1 212.53 581.61)"  >
<path style="stroke: none; stroke-width: 1; stroke-dasharray: none; stroke-linecap: butt; stroke-dashoffset: 0; stroke-linejoin: miter; stroke-miterlimit: 4; fill: rgb(170,31,18); fill-rule: nonzero; opacity: 1;" vector-effect="non-scaling-stroke"  transform=" translate(-361.38, -579.32)" d="M 348.559 662.578 L 348.123 662.202 C 348.096 662.17 347.59 661.33 347.57 661.25 C 346.945 658.693 347.58 653.958 347.583 651.201 L 347.621 618.296 L 347.637 541.5 L 347.693 496.75 L 348.5 496.064 L 349.933 496.857 C 352.038 500.728 355.663 502.616 358.778 505.535 C 364.006 510.435 369.112 516.101 375.042 520.134 L 375.475 645.994 L 364.335 652.747 L 354.649 658.731 C 352.749 660.032 350.772 661.92 348.559 662.578 Z" stroke-linecap="round" />
</g>
<g transform="matrix(1 0 0 1 212.5 357.79)"  >
<path style="stroke: none; stroke-width: 1; stroke-dasharray: none; stroke-linecap: butt; stroke-dashoffset: 0; stroke-linejoin: miter; stroke-miterlimit: 4; fill: rgb(170,31,18); fill-rule: nonzero; opacity: 1;" vector-effect="non-scaling-stroke"  transform=" translate(-361.36, -355.5)" d="M 347.625 439.482 L 347.565 415.115 L 347.556 367.743 L 347.539 305.137 L 347.448 275.75 C 347.49 274.126 347.429 272.775 348.5 271.524 L 350.633 272.596 C 352.741 275.639 355.38 277.332 358.201 279.615 C 363.645 284.021 370.178 288.652 374.979 293.67 L 375.272 424.04 C 370.938 426.988 366.631 429.878 361.903 432.177 C 358.448 433.569 355.373 435.738 352.152 437.591 C 350.839 438.347 349.168 439.458 347.625 439.482 Z" stroke-linecap="round" />
</g>
<g transform="matrix(1 0 0 1 355.59 603.93)"  >
<path style="stroke: none; stroke-width: 1; stroke-dasharray: none; stroke-linecap: butt; stroke-dashoffset: 0; stroke-linejoin: miter; stroke-miterlimit: 4; fill: rgb(16,87,124); fill-rule: nonzero; opacity: 1;" vector-effect="non-scaling-stroke"  transform=" translate(-504.44, -601.64)" d="M 449.066 550.201 C 456.263 553.562 464.236 557.271 470.875 561.631 L 501.4 578.34 C 509.148 582.593 517.101 586.527 524.331 591.656 C 540.124 602.86 552.183 620.546 557.351 639.226 L 557.354 639.347 L 559.821 648.63 C 557.915 650.82 555.282 651.78 552.538 652.418 L 551.614 652.066 L 550.577 653.086 C 545.873 649.644 540.421 646.962 535.32 644.146 L 512.085 631.248 C 507.366 628.645 502.485 626.252 497.938 623.355 C 491.239 620.646 484.587 616.338 478.236 612.861 L 450.487 597.936 L 450.357 597.585 C 449.2 594.528 449.443 590.98 449.42 587.75 L 449.55 572.186 C 449.665 568.766 450.075 565.196 449.609 561.804 L 449.066 550.201 Z" stroke-linecap="round" />
</g>
<g transform="matrix(1 0 0 1 406.86 648.18)"  >
<path style="stroke: none; stroke-width: 1; stroke-dasharray: none; stroke-linecap: butt; stroke-dashoffset: 0; stroke-linejoin: miter; stroke-miterlimit: 4; fill: rgb(0,0,0); fill-rule: nonzero; opacity: 1;" vector-effect="non-scaling-stroke"  transform=" translate(-555.72, -645.88)" d="M 551.614 652.066 C 552.781 647.772 554.266 642.669 557.354 639.347 L 559.821 648.63 C 557.915 650.82 555.282 651.78 552.538 652.418 L 551.614 652.066 Z" stroke-linecap="round" />
</g>
<g transform="matrix(1 0 0 1 324.65 589.07)"  >
<path style="stroke: none; stroke-width: 1; stroke-dasharray: none; stroke-linecap: butt; stroke-dashoffset: 0; stroke-linejoin: miter; stroke-miterlimit: 4; fill: rgb(30,65,78); fill-rule: nonzero; opacity: 1;" vector-effect="non-scaling-stroke"  transform=" translate(-473.5, -586.78)" d="M 449.066 550.201 C 456.263 553.562 464.236 557.271 470.875 561.631 L 471.991 602.137 L 467.396 604.63 C 470.254 605.467 473.265 606.207 475.943 607.525 C 481.709 610.364 486.925 614.335 492.152 618.039 C 493.712 619.145 496.445 620.586 497.427 622.219 L 497.938 623.355 C 491.239 620.646 484.587 616.338 478.236 612.861 L 450.487 597.936 L 450.357 597.585 C 449.2 594.528 449.443 590.98 449.42 587.75 L 449.55 572.186 C 449.665 568.766 450.075 565.196 449.609 561.804 L 449.066 550.201 Z" stroke-linecap="round" />
</g>
<g transform="matrix(1 0 0 1 352.16 380.33)"  >
<path style="stroke: none; stroke-width: 1; stroke-dasharray: none; stroke-linecap: butt; stroke-dashoffset: 0; stroke-linejoin: miter; stroke-miterlimit: 4; fill: rgb(16,87,124); fill-rule: nonzero; opacity: 1;" vector-effect="non-scaling-stroke"  transform=" translate(-501.02, -378.04)" d="M 450.298 324.951 L 473.673 337.439 L 514.532 359.451 L 534.337 369.74 C 540.673 372.979 546.626 375.912 552.155 380.463 C 551.448 392.501 551.945 404.799 551.948 416.87 C 551.95 421.458 552.352 426.605 551.707 431.136 L 450.551 376.371 C 449.383 373.109 450.079 368.414 450.157 364.974 L 450.411 347.434 C 450.447 343.834 450.719 340.043 450.195 336.483 C 449.705 332.828 450.206 328.659 450.298 324.951 Z" stroke-linecap="round" />
</g>
<g transform="matrix(1 0 0 1 263.91 585.35)"  >
<path style="stroke: none; stroke-width: 1; stroke-dasharray: none; stroke-linecap: butt; stroke-dashoffset: 0; stroke-linejoin: miter; stroke-miterlimit: 4; fill: rgb(193,99,14); fill-rule: nonzero; opacity: 1;" vector-effect="non-scaling-stroke"  transform=" translate(-412.76, -583.06)" d="M 375.042 520.134 L 449.609 561.804 C 450.075 565.196 449.665 568.766 449.55 572.186 L 449.42 587.75 C 449.443 590.98 449.2 594.528 450.357 597.585 L 450.487 597.936 L 375.475 645.994 L 375.042 520.134 Z" stroke-linecap="round" />
</g>
<g transform="matrix(1 0 0 1 263.91 361.14)"  >
<path style="stroke: none; stroke-width: 1; stroke-dasharray: none; stroke-linecap: butt; stroke-dashoffset: 0; stroke-linejoin: miter; stroke-miterlimit: 4; fill: rgb(193,99,14); fill-rule: nonzero; opacity: 1;" vector-effect="non-scaling-stroke"  transform=" translate(-412.76, -358.86)" d="M 374.979 293.67 L 425.945 322.86 L 441.763 331.871 C 444.478 333.419 447.295 335.341 450.195 336.483 C 450.719 340.043 450.447 343.834 450.411 347.434 L 450.157 364.974 C 450.079 368.414 449.383 373.109 450.551 376.371 C 443.261 382.443 434.058 386.912 425.987 391.947 L 375.272 424.04 L 374.979 293.67 Z" stroke-linecap="round" />
</g>
<g transform="matrix(1 0 0 1 309.12 678.18)"  >
<path style="stroke: none; stroke-width: 1; stroke-dasharray: none; stroke-linecap: butt; stroke-dashoffset: 0; stroke-linejoin: miter; stroke-miterlimit: 4; fill: rgb(254,175,53); fill-rule: nonzero; opacity: 1;" vector-effect="non-scaling-stroke"  transform=" translate(-457.98, -675.88)" d="M 450.487 597.936 L 478.236 612.861 C 484.587 616.338 491.239 620.646 497.938 623.355 C 502.485 626.252 507.366 628.645 512.085 631.248 L 535.32 644.146 C 540.421 646.962 545.873 649.644 550.577 653.086 C 550.862 653.558 551.294 653.967 551.431 654.5 C 551.829 656.049 551.473 658.725 551.474 660.415 L 551.411 677.886 L 551.029 753.834 L 364.335 652.747 L 375.475 645.994 L 450.487 597.936 Z" stroke-linecap="round" />
</g>
<g transform="matrix(1 0 0 1 300.81 451.47)"  >
<path style="stroke: none; stroke-width: 1; stroke-dasharray: none; stroke-linecap: butt; stroke-dashoffset: 0; stroke-linejoin: miter; stroke-miterlimit: 4; fill: rgb(254,175,53); fill-rule: nonzero; opacity: 1;" vector-effect="non-scaling-stroke"  transform=" translate(-449.67, -449.18)" d="M 450.551 376.371 L 551.707 431.136 L 551.486 472.507 C 551.476 476.73 551.384 480.804 550.593 484.962 C 550.084 487.638 549.075 490.169 548.745 492.889 L 511 514.014 L 500.673 519.772 C 499.269 520.545 497.619 521.722 496.022 521.975 C 494.688 522.086 493.698 521.396 492.566 520.797 L 394.676 467.088 L 363.361 449.91 C 358.232 447.097 352.601 444.533 347.832 441.156 L 347.625 439.482 C 349.168 439.458 350.839 438.347 352.152 437.591 C 355.373 435.738 358.448 433.569 361.903 432.177 C 366.631 429.878 370.938 426.988 375.272 424.04 L 425.987 391.947 C 434.058 386.912 443.261 382.443 450.551 376.371 Z" stroke-linecap="round" />
</g>
<g transform="matrix(1 0 0 1 374.9 499.53)"  >
<path style="stroke: none; stroke-width: 1; stroke-dasharray: none; stroke-linecap: butt; stroke-dashoffset: 0; stroke-linejoin: miter; stroke-miterlimit: 4; fill: rgb(170,31,18); fill-rule: nonzero; opacity: 1;" vector-effect="non-scaling-stroke"  transform=" translate(-523.75, -497.24)" d="M 496.929 504.992 C 498.562 503.334 501.036 502.234 503.042 501.067 L 513.819 494.717 C 526.196 487.353 538.664 479.03 551.486 472.507 C 551.476 476.73 551.384 480.804 550.593 484.962 C 550.084 487.638 549.075 490.169 548.745 492.889 L 511 514.014 L 500.673 519.772 C 499.269 520.545 497.619 521.722 496.022 521.975 L 496.929 504.992 Z" stroke-linecap="round" />
</g>
<g transform="matrix(1 0 0 1 273.42 479.37)"  >
<path style="stroke: none; stroke-width: 1; stroke-dasharray: none; stroke-linecap: butt; stroke-dashoffset: 0; stroke-linejoin: miter; stroke-miterlimit: 4; fill: rgb(228,65,43); fill-rule: nonzero; opacity: 1;" vector-effect="non-scaling-stroke"  transform=" translate(-422.28, -477.08)" d="M 347.625 439.482 C 349.168 439.458 350.839 438.347 352.152 437.591 C 355.373 435.738 358.448 433.569 361.903 432.177 L 453.496 481.621 L 480.857 496.605 L 491.985 502.822 C 493.478 503.622 495.247 504.777 496.929 504.992 L 496.022 521.975 C 494.688 522.086 493.698 521.396 492.566 520.797 L 394.676 467.088 L 363.361 449.91 C 358.232 447.097 352.601 444.533 347.832 441.156 L 347.625 439.482 Z" stroke-linecap="round" />
</g>
</svg>