<?xml version="1.0" encoding="utf-8"?>
<svg viewBox="0 0 1024 1024" xmlns="http://www.w3.org/2000/svg">
  <path d="M277.235 165.098L382.7 105.592L411.565 120.757L459.567 146.057L586.683 214.6L639.779 243.546C649.933 249.037 661.211 253.67 670.375 260.752C685.307 271.155 699.412 283.167 710.746 297.477C718.417 307.162 724.599 317.727 730.141 328.741C733.596 335.608 737.737 343.543 738.976 351.213L739.034 351.818C735.745 352.7 732.921 354.886 730.025 356.639L716.134 364.783L660.955 396.756C648.265 404.121 634.77 411.269 622.72 419.613L617.533 402.026C609.367 377.95 593.933 355.418 574.319 339.201C561.25 328.396 544.257 320.788 529.294 312.909L466.171 279.815L337.701 212.14L291.12 187.61L274.52 178.893C274.499 175.556 273.774 170.181 274.719 167.084C275.141 165.701 276.039 165.631 277.235 165.098Z" style="fill: none; stroke: rgb(0, 0, 0); stroke-width: 5px;" transform="matrix(0.9999999999999999, 0, 0, 0.9999999999999999, 0, 0)"/>
  <path d="M291.12 187.61L337.701 212.14L466.171 279.815L529.294 312.909C544.257 320.788 561.25 328.396 574.319 339.201C593.933 355.418 609.367 377.95 617.533 402.026L622.72 419.613C623.764 440.092 622.664 460.974 622.309 481.492C622.105 493.304 623.098 505.566 621.201 517.25L621.093 517.954C619.066 530.43 611.534 540.329 601.632 547.755L561.945 570.104L559.329 571.362C559.312 572.425 559.136 571.957 559.909 572.757L577.163 590.134C598.839 614.167 613.56 642.318 623.392 673.009C624.257 677.432 624.006 682.015 623.999 686.505L623.958 706.993L623.892 746.766C623.852 759.628 624.17 772.726 621.623 785.398C619.962 793.663 616.571 800.771 611.884 807.719L610.321 809.966C608.541 813.392 605.64 816.473 603.072 819.346C595.042 825.31 586.062 830.336 576 831.53C572.569 831.938 570.131 831.988 566.75 831.217L566.023 831.059C564.529 830.725 563.698 830.404 562.559 829.395L562.462 829.262C553.714 827.812 545.229 823.774 537.325 819.892L493.096 795.495L406.164 747.25L332.594 706.564C318.93 699.075 304.508 692.072 291.343 683.787C290.589 681.595 290.995 678.354 290.998 675.976L291.009 660.185L291.044 597.914L291.23 324.19L291.318 235.189C291.332 219.441 292.073 203.299 291.12 187.61Z" style="stroke: rgb(0, 0, 0); stroke-width: 5px; fill: none;" transform="matrix(0.9999999999999999, 0, 0, 0.9999999999999999, 0, 0)"/>
  <path d="M562.559 829.395L567.381 829.807C584.472 830.866 598.247 820.748 610.321 809.966C608.541 813.392 605.64 816.473 603.072 819.346C595.042 825.31 586.062 830.336 576 831.53C572.569 831.938 570.131 831.988 566.75 831.217L566.023 831.059C564.529 830.725 563.698 830.404 562.559 829.395Z" transform="matrix(0.9999999999999999, 0, 0, 0.9999999999999999, 0, 0)"/>
  <path d="M350.633 272.596L450.298 324.951C450.206 328.659 449.705 332.828 450.195 336.483C447.295 335.341 444.478 333.419 441.763 331.871L425.945 322.86L374.979 293.67C370.178 288.652 363.645 284.021 358.201 279.615C355.38 277.332 352.741 275.639 350.633 272.596Z" style="stroke: rgb(0, 0, 0); stroke-width: 5px; fill: none;" transform="matrix(0.9999999999999999, 0, 0, 0.9999999999999999, 0, 0)"/>
  <path d="M349.933 496.857L449.066 550.201L449.609 561.804L375.042 520.134C369.112 516.101 364.006 510.435 358.778 505.535C355.663 502.616 352.038 500.728 349.933 496.857Z" style="fill: none; stroke-width: 5px; stroke: rgb(0, 0, 0);" transform="matrix(0.9999999999999999, 0, 0, 0.9999999999999999, 0, 0)"/>
  <g transform="matrix(0.9999999999999999, 0, 0, 0.9999999999999999, 0, 0)">
    <path d="M552.155 380.463C558.653 386.681 563.23 392.274 563.415 401.75L563.486 453.814L563.475 470.418C563.471 473.365 563.704 476.485 563.298 479.401C562.982 481.674 562.365 483.361 560.75 485.044C557.549 488.383 552.728 490.641 548.745 492.889C549.075 490.169 550.084 487.638 550.593 484.962C551.384 480.804 551.476 476.73 551.486 472.507L551.707 431.136C552.352 426.605 551.95 421.458 551.948 416.87C551.945 404.799 551.448 392.501 552.155 380.463Z" style="fill: none; stroke-width: 5px; stroke: rgb(0, 0, 0);"/>
  </g>
  <path d="M559.821 648.63C564.79 669.512 563.493 691.132 563.486 712.417C563.482 723.559 564.257 734.878 562.376 745.906C561.566 750.661 559.826 755.2 557.305 759.31C554.977 763.105 551.321 766.391 547.043 767.771L550.992 764.334L551.029 753.834L551.411 677.886L551.474 660.415C551.473 658.725 551.829 656.049 551.431 654.5C551.294 653.967 550.862 653.558 550.577 653.086L551.614 652.066L552.538 652.418C555.282 651.78 557.915 650.82 559.821 648.63Z" style="stroke: rgb(0, 0, 0); stroke-width: 5px; fill: none;" transform="matrix(0.9999999999999999, 0, 0, 0.9999999999999999, 0, 0)"/>
  <path d="M348.559 662.578C350.772 661.92 352.749 660.032 354.649 658.731L364.335 652.747L551.029 753.834L550.992 764.334L547.043 767.771L544.003 769.657C542.331 769.414 540.499 768.126 538.991 767.319L527.209 760.787L495.148 743.18L404.882 693.927L370.496 675.358C363.32 671.506 354.807 667.785 348.559 662.578Z" style="fill: none; stroke-width: 5px; stroke: rgb(0, 0, 0);" transform="matrix(0.9999999999999999, 0, 0, 0.9999999999999999, 0, 0)"/>
  <path d="M348.559 662.578L348.123 662.202C348.096 662.17 347.59 661.33 347.57 661.25C346.945 658.693 347.58 653.958 347.583 651.201L347.621 618.296L347.637 541.5L347.693 496.75L348.5 496.064L349.933 496.857C352.038 500.728 355.663 502.616 358.778 505.535C364.006 510.435 369.112 516.101 375.042 520.134L375.475 645.994L364.335 652.747L354.649 658.731C352.749 660.032 350.772 661.92 348.559 662.578Z" style="stroke: rgb(0, 0, 0); stroke-width: 5px; fill: none;" transform="matrix(0.9999999999999999, 0, 0, 0.9999999999999999, 0, 0)"/>
  <path d="M347.625 439.482L347.565 415.115L347.556 367.743L347.539 305.137L347.448 275.75C347.49 274.126 347.429 272.775 348.5 271.524L350.633 272.596C352.741 275.639 355.38 277.332 358.201 279.615C363.645 284.021 370.178 288.652 374.979 293.67L375.272 424.04C370.938 426.988 366.631 429.878 361.903 432.177C358.448 433.569 355.373 435.738 352.152 437.591C350.839 438.347 349.168 439.458 347.625 439.482Z" style="stroke: rgb(0, 0, 0); stroke-width: 5px; fill: none;" transform="matrix(0.9999999999999999, 0, 0, 0.9999999999999999, 0, 0)"/>
  <g transform="matrix(0.9999999999999999, 0, 0, 0.9999999999999999, 0, 0)">
    <path d="M496.929 504.992C498.562 503.334 501.036 502.234 503.042 501.067L513.819 494.717C526.196 487.353 538.664 479.03 551.486 472.507C551.476 476.73 551.384 480.804 550.593 484.962C550.084 487.638 549.075 490.169 548.745 492.889L511 514.014L500.673 519.772C499.269 520.545 497.619 521.722 496.022 521.975L496.929 504.992Z" style="fill: none; stroke: rgb(0, 0, 0); stroke-width: 5px;"/>
  </g>
  <g transform="matrix(0.9999999999999999, 0, 0, 0.9999999999999999, 0, 0)">
    <path d="M347.625 439.482C349.168 439.458 350.839 438.347 352.152 437.591C355.373 435.738 358.448 433.569 361.903 432.177L453.496 481.621L480.857 496.605L491.985 502.822C493.478 503.622 495.247 504.777 496.929 504.992L496.022 521.975C494.688 522.086 493.698 521.396 492.566 520.797L394.676 467.088L363.361 449.91C358.232 447.097 352.601 444.533 347.832 441.156L347.625 439.482Z" style="fill: none; stroke: rgb(0, 0, 0); stroke-width: 5px;"/>
  </g>
</svg>