<?xml version="1.0" encoding="utf-8"?>
<svg viewBox="0 0 1024 1024" xmlns="http://www.w3.org/2000/svg">
  <path d="M274.52 178.893C274.499 175.556 273.774 170.181 274.719 167.084C275.141 165.701 276.039 165.631 277.235 165.098C288.542 169.201 298.5 174.742 309.076 180.317L346.5 199.964L495.647 278.164L543.145 303.486C551.518 307.967 559.907 312.928 568.506 316.918L670.375 260.752C685.307 271.155 699.412 283.167 710.746 297.477C718.417 307.162 724.599 317.727 730.141 328.741C733.596 335.608 737.737 343.543 738.976 351.213L739.034 351.818C735.745 352.7 732.921 354.886 730.025 356.639L716.134 364.783L660.955 396.756C648.265 404.121 634.77 411.269 622.72 419.613L617.533 402.026C609.367 377.95 593.933 355.418 574.319 339.201C561.25 328.396 544.257 320.788 529.294 312.909L466.171 279.815L337.701 212.14L291.12 187.61L274.52 178.893Z" style="fill-opacity: 0.5; fill: none; fill-rule: nonzero; stroke: rgb(0, 0, 0); stroke-width: 5px;" transform="matrix(0.9999999999999999, 0, 0, 0.9999999999999999, 0, 0)"/>
  <path d="M622.72 419.613C634.77 411.269 648.265 404.121 660.955 396.756L716.134 364.783L730.025 356.639C732.921 354.886 735.745 352.7 739.034 351.818L739.437 352.21L740.249 419.81L740.496 448.094C740.499 452.47 740.843 457.171 740.413 461.516C740.254 463.128 739.73 464.261 738.604 465.401C736.191 467.846 732.869 469.607 729.941 471.352L717.34 478.825L687.5 497.043L669.258 508.293C662.8 511.63 656.812 515.555 650.572 519.259L617.197 539.276L606.563 545.61C604.896 546.564 603.565 547.496 601.632 547.755C611.534 540.329 619.066 530.43 621.093 517.954L621.201 517.25C623.098 505.566 622.105 493.304 622.309 481.492C622.664 460.974 623.764 440.092 622.72 419.613Z" style="stroke: rgb(0, 0, 0); stroke-width: 5px; fill: none;" transform="matrix(0.9999999999999999, 0, 0, 0.9999999999999999, 0, 0)"/>
  <path d="M669.258 508.293C675.379 512.263 682.043 516.223 687.231 521.386C711.86 541.997 731.415 569.706 740.409 600.783L623.392 673.009C613.56 642.318 598.839 614.167 577.163 590.134L559.909 572.757C559.136 571.957 559.312 572.425 559.329 571.362L561.945 570.104L601.632 547.755C603.565 547.496 604.896 546.564 606.563 545.61L617.197 539.276L650.572 519.259C656.812 515.555 662.8 511.63 669.258 508.293Z" style="fill: none; stroke: rgb(0, 0, 0); stroke-width: 5px;" transform="matrix(0.9999999999999999, 0, 0, 0.9999999999999999, 0, 0)"/>
  <path d="M669.258 508.293C675.379 512.263 682.043 516.223 687.231 521.386L665.456 534.58L625.5 558.468L609.16 568.375C607.306 569.538 603.895 572.325 601.875 572.644C600.832 572.809 598.695 572.32 597.579 572.172L588.708 571.289L572.904 570.515C569.293 570.432 565.52 570.624 561.945 570.104L601.632 547.755C603.565 547.496 604.896 546.564 606.563 545.61L617.197 539.276L650.572 519.259C656.812 515.555 662.8 511.63 669.258 508.293Z" style="stroke-width: 5px; stroke: rgb(0, 0, 0); fill: none;" transform="matrix(0.9999999999999999, 0, 0, 0.9999999999999999, 0, 0)"/>
  <path d="M740.409 600.783C741.706 609.405 741.058 618.428 740.983 627.137L740.838 664.094L740.944 701.372C740.971 708.479 741.389 715.877 740.614 722.943C740.202 726.693 739.067 730.555 736.834 733.639C735.356 735.681 733.234 737.245 731.167 738.653L708.496 752.834L659.4 783.497L622.847 807.329C618.49 810.216 614.366 813.61 609.892 816.296C607.848 817.523 605.45 818.979 603.072 819.346C605.64 816.473 608.541 813.392 610.321 809.966L611.884 807.719C616.571 800.771 619.962 793.663 621.623 785.398C624.17 772.726 623.852 759.628 623.892 746.766L623.958 706.993L623.999 686.505C624.006 682.015 624.257 677.432 623.392 673.009L740.409 600.783Z" style="stroke: rgb(0, 0, 0); stroke-width: 5px; fill: none;" transform="matrix(0.9999999999999999, 0, 0, 0.9999999999999999, 0, 0)"/>
  <path d="M562.559 829.395L567.381 829.807C584.472 830.866 598.247 820.748 610.321 809.966C608.541 813.392 605.64 816.473 603.072 819.346C595.042 825.31 586.062 830.336 576 831.53C572.569 831.938 570.131 831.988 566.75 831.217L566.023 831.059C564.529 830.725 563.698 830.404 562.559 829.395Z" transform="matrix(0.9999999999999999, 0, 0, 0.9999999999999999, 0, 0)"/>
</svg>