<svg id="svg" xmlns="http://www.w3.org/2000/svg" xmlns:xlink="http://www.w3.org/1999/xlink" width="400" height="400" viewBox="0, 0, 400,400"><g id="svgg"><path id="path0" d="M46.914 62.469 C 46.778 62.605,46.667 63.680,46.667 64.858 L 46.667 67.001 48.981 68.266 C 51.662 69.731,126.691 109.174,139.630 115.920 C 150.683 121.683,151.892 122.356,154.799 124.360 C 163.880 130.619,171.021 140.743,174.452 152.222 L 175.614 156.111 175.578 172.037 C 175.517 198.869,175.273 199.465,161.071 207.480 C 157.121 209.709,153.502 211.783,153.029 212.089 C 152.172 212.643,152.179 212.653,156.363 216.971 C 164.507 225.376,170.313 234.736,174.601 246.373 L 175.926 249.968 175.926 268.290 C 175.926 291.052,175.735 292.740,172.527 298.333 C 169.549 303.524,161.710 308.064,155.556 308.163 C 153.789 308.191,153.642 308.246,154.444 308.577 C 156.869 309.576,162.281 308.233,166.228 305.652 C 167.386 304.895,168.756 304.087,169.272 303.856 C 169.789 303.625,174.372 300.684,179.457 297.320 C 184.543 293.956,194.787 287.414,202.222 282.783 C 209.657 278.151,216.287 273.843,216.955 273.210 C 219.238 271.042,219.259 270.790,219.259 246.299 L 219.259 224.213 218.199 221.088 C 214.392 209.873,204.953 197.321,195.436 190.818 C 192.939 189.112,192.912 189.075,193.714 188.524 C 194.163 188.215,199.803 184.744,206.247 180.810 C 212.691 176.875,218.202 173.422,218.495 173.135 C 219.113 172.529,219.126 136.280,218.510 131.843 C 217.159 122.112,207.831 108.717,196.153 99.737 L 193.162 97.438 191.673 98.294 C 190.855 98.765,182.373 103.451,172.824 108.707 L 155.463 118.265 152.824 116.927 C 151.373 116.190,146.435 113.568,141.852 111.099 C 128.666 103.996,57.695 66.777,52.778 64.387 C 48.468 62.291,47.431 61.952,46.914 62.469 M73.704 132.855 L 73.704 164.308 75.093 165.071 C 108.635 183.489,128.155 194.074,128.574 194.074 C 129.621 194.074,151.971 181.278,152.752 180.231 C 154.020 178.532,153.938 148.445,152.658 145.846 C 151.334 143.157,148.477 140.839,142.742 137.801 C 139.910 136.301,130.843 131.456,122.593 127.034 C 106.353 118.331,75.403 102.043,74.352 101.647 C 73.738 101.415,73.704 103.054,73.704 132.855 M131.574 150.902 L 149.259 160.467 149.259 168.104 L 149.259 175.741 147.314 176.817 C 146.245 177.409,141.676 180.117,137.161 182.835 C 132.645 185.554,128.799 187.778,128.613 187.778 C 128.427 187.778,124.871 185.899,120.711 183.602 C 116.552 181.305,105.448 175.276,96.037 170.203 L 78.927 160.981 82.334 158.775 C 89.047 154.428,103.567 145.283,106.111 143.800 C 107.537 142.968,109.370 141.791,110.185 141.184 C 111.641 140.099,111.686 140.090,112.778 140.708 C 113.389 141.054,121.847 145.641,131.574 150.902 M73.625 213.968 C 73.582 230.221,73.559 244.057,73.574 244.714 C 73.607 246.168,74.322 246.799,78.333 248.921 C 82.768 251.267,116.779 269.772,132.452 278.366 L 146.201 285.905 147.637 285.205 C 153.004 282.590,153.877 278.884,153.609 259.866 C 153.214 231.930,149.638 225.446,128.148 213.702 C 123.565 211.197,119.218 208.771,118.488 208.312 C 117.758 207.852,115.425 206.606,113.303 205.543 C 111.181 204.480,101.778 199.490,92.407 194.455 C 83.037 189.419,74.995 185.101,74.537 184.859 L 73.704 184.418 73.625 213.968 M120.741 227.131 C 136.657 235.726,145.494 240.582,147.375 241.767 L 149.379 243.031 149.138 261.388 C 149.005 271.485,148.841 279.801,148.772 279.870 C 148.599 280.043,79.998 242.880,80.010 242.619 C 80.016 242.503,87.120 237.872,95.796 232.329 L 111.572 222.250 112.731 222.841 C 113.368 223.166,116.972 225.096,120.741 227.131 " stroke="none" fill="#000000" fill-rule="evenodd"></path></g></svg>